<?xml version="1.0" encoding="UTF-8" standalone="no"?>
<!-- Created with Inkscape (http://www.inkscape.org/) -->

<svg
   width="112.63091mm"
   height="89.670486mm"
   viewBox="0 0 112.63091 89.670486"
   version="1.1"
   id="svg5"
   inkscape:version="1.1.2 (0a00cf5339, 2022-02-04)"
   sodipodi:docname="hedgehog.svg"
   xmlns:inkscape="http://www.inkscape.org/namespaces/inkscape"
   xmlns:sodipodi="http://sodipodi.sourceforge.net/DTD/sodipodi-0.dtd"
   xmlns="http://www.w3.org/2000/svg"
   xmlns:svg="http://www.w3.org/2000/svg">
  <sodipodi:namedview
     id="namedview7"
     pagecolor="#ffffff"
     bordercolor="#666666"
     borderopacity="1.0"
     inkscape:pageshadow="2"
     inkscape:pageopacity="0.0"
     inkscape:pagecheckerboard="0"
     inkscape:document-units="mm"
     showgrid="false"
     inkscape:zoom="0.71579411"
     inkscape:cx="152.97695"
     inkscape:cy="136.21235"
     inkscape:window-width="1920"
     inkscape:window-height="1006"
     inkscape:window-x="1920"
     inkscape:window-y="0"
     inkscape:window-maximized="1"
     inkscape:current-layer="layer1"
     fit-margin-top="0"
     fit-margin-left="0"
     fit-margin-right="0"
     fit-margin-bottom="0" />
  <defs
     id="defs2" />
  <g
     inkscape:label="Layer 1"
     inkscape:groupmode="layer"
     id="layer1"
     transform="translate(-63.800436,-34.888451)">
    <path
       id="path1842"
       style="fill:#000000;stroke-width:0.921233"
       d="m 95.233424,123.19734 c -0.0013,-0.75034 -1.446349,-1.15154 -4.14756,-1.15154 -3.923554,0 -5.507535,-1.13936 -2.994008,-2.15359 0.633348,-0.25556 -1.646704,-0.49738 -5.066782,-0.53738 -6.916006,-0.0809 -7.24753,-0.49306 -4.270774,-5.30954 2.328002,-3.76679 2.381244,-3.69871 -4.83597,-6.18395 -7.165011,-2.46726 -7.435874,-3.32717 -2.226438,-7.06831 2.304811,-1.655182 4.066526,-3.133472 3.914923,-3.285072 -0.151603,-0.15161 -2.511328,-1.47023 -5.243834,-2.93027 -8.06554,-4.30961 -8.517251,-5.93981 -2.340496,-8.44677 6.08657,-2.47036 5.971454,-1.89686 1.262429,-6.28939 -4.545982,-4.24044 -4.321092,-6.25097 0.794479,-7.10265 6.095405,-1.01482 6.293273,-1.17708 4.216776,-3.45772 -5.263344,-5.7808 -4.840563,-7.59659 1.966792,-8.44711 5.007959,-0.62571 5.007959,-0.62571 3.697107,-3.76302 -3.191087,-7.63734 -1.934673,-8.57828 7.210555,-5.40003 3.454624,1.20058 3.454624,1.20058 3.454624,-4.74657 0,-6.98388 0.405882,-7.15206 6.57105,-2.72283 5.530293,3.97311 5.052983,4.06851 5.761843,-1.15154 1.00652,-7.41194 1.86737,-7.77903 6.49265,-2.76863 4.03498,4.37092 4.03498,4.37092 6.89171,-0.69093 3.54078,-6.27392 3.98441,-6.27256 7.53745,0.0231 2.86976,5.08494 2.86976,5.08494 6.5348,0.92123 4.68624,-5.32384 5.03908,-5.25752 6.85926,1.28931 1.51607,5.453 1.51607,5.453 6.09526,2.30308 2.51855,-1.73246 4.8954,-3.14992 5.28189,-3.14992 1.11249,0 1.82142,5.01583 1.22682,8.67995 -0.54098,3.33363 -0.53408,3.34183 2.00153,2.37779 1.39941,-0.53206 4.19025,-1.33718 6.20188,-1.78916 3.65748,-0.82178 3.65748,-0.82178 3.21211,2.55499 -0.24496,1.85723 -0.73657,4.26555 -1.09247,5.35184 -0.58696,1.79156 -0.22882,2.03259 3.85473,2.59422 7.01031,0.96416 7.28574,1.45344 3.56346,6.3299 -3.26262,4.27426 -3.26262,4.27426 -0.74558,4.83107 9.48744,2.09874 9.83212,2.94497 3.47348,8.52793 -4.08468,3.58639 -4.19151,3.24717 1.78685,5.6736 6.194,2.51397 5.8305,4.06062 -1.99189,8.4753 -5.15581,2.90976 -5.15581,2.90976 -1.19601,6.286362 4.72498,4.02908 4.39714,4.92213 -2.58078,7.03017 -7.03409,2.12501 -7.20458,2.36776 -4.47953,6.37803 3.06288,4.50744 2.61202,4.98861 -4.75579,5.07555 -3.39017,0.04 -5.64576,0.28182 -5.01241,0.53738 2.60709,1.05198 0.94638,2.32754 -2.59111,1.99019 -3.03728,-0.28965 -3.46409,-0.15323 -2.26462,0.72385 1.15999,0.8482 -1.94967,1.18591 -14.4517,1.56942 -24.2599,0.74419 -37.574304,0.39754 -37.576706,-0.97833 z m 11.126886,-5.71597 c 5.03284,6.76519 6.48577,5.41919 1.11463,-0.65292 2.7352,2.80759 4.01644,4.58599 4.38595,4.32085 0.38994,-0.27979 -0.24963,-2.27432 -3.15965,-5.7101 2.10202,1.66646 3.05411,4.55396 4.04794,4.49548 0.60161,-0.0354 -0.34151,-1.73393 -2.15928,-5.44578 1.32495,1.03198 2.46676,4.81827 3.05264,4.4655 0.36188,-0.21789 -0.31932,-2.90826 -1.35446,-5.17284 -2.56714,-4.9643 -10.90265,-9.1805 -12.0807,-6.11055 -1.244677,3.24356 1.77502,9.06379 5.30188,11.65984 4.0411,3.37355 5.68301,5.043 0.85105,-1.8495 z m 19.96272,-10.68631 c 3.22999,-3.67045 2.00208,-10.726182 -2.30306,-13.233692 -1.37839,-0.80284 -1.3991,-0.94307 -0.1428,-0.96702 2.53565,-0.0483 4.76837,3.44123 5.22193,8.161482 0.43462,4.52322 0.43462,4.52322 3.52101,3.23364 4.23233,-1.76838 9.31593,-1.58457 13.91427,0.50311 2.99361,1.35912 3.74653,1.45792 3.35607,0.44039 -0.27687,-0.72151 -0.82925,-1.31184 -1.22751,-1.31184 -0.39826,0 -0.97678,-0.65844 -1.2856,-1.46321 -0.47956,-1.24973 0.0101,-1.37328 3.35606,-0.84684 3.91755,0.61638 3.91755,0.61638 0.39598,-1.955862 -3.8305,-2.7979 -3.20507,-3.81958 2.4244,-3.96043 3.40311,-0.0851 2.27108,-1.90722 -1.18493,-1.90722 -5.26179,0 -5.94117,-0.86577 -3.07197,-3.91477 2.17789,-2.31434 2.29698,-2.66887 0.74791,-2.2264 -7.23989,2.06798 -7.22039,2.07531 -4.63104,-1.7403 7.13493,-10.51391 -0.0467,-19.23752 -9.00144,-10.93419 -3.07374,2.85013 -3.09448,2.44564 -0.1705,-3.32456 2.70891,-5.34578 2.62267,-5.45446 -1.48356,-1.86933 -3.71053,3.23966 -3.7072,3.24117 -2.6986,-1.23085 0.79833,-3.53969 0.79833,-3.53969 -2.46862,-0.43475 -3.26696,3.10494 -3.26696,3.10494 -2.80675,-1.25418 0.53538,-5.07125 -0.16917,-5.03072 -2.50263,0.14396 -1.994,4.4219 -2.78602,4.19421 -3.69249,-1.06151 -0.67879,-3.93566 -0.67879,-3.93566 -2.28078,0.6705 -1.602,4.60617 -1.602,4.60617 -3.51014,0.46062 -1.90815,-4.14555 -1.90815,-4.14555 -1.98577,-0.23031 -0.0427,2.15338 -0.49218,3.91524 -0.99886,3.91524 -0.50668,0 -0.92329,-0.31091 -0.92581,-0.69092 -0.002,-0.38001 -1.03366,-1.93459 -2.29144,-3.45463 -2.28687,-2.7637 -2.28687,-2.7637 -0.95752,1.15154 1.56127,4.59832 1.27408,4.73209 -3.06079,1.42573 -3.26392,-2.48952 -3.26392,-2.48952 -0.77788,1.9585 3.11392,5.5714 3.14339,6.57965 0.11017,3.76855 -9.45349,-8.76119 -16.292182,1.45931 -8.133603,12.15576 2.261374,2.96481 2.261374,2.96481 -1.560882,1.61624 -5.55241,-1.95901 -6.264964,-1.63247 -2.973912,1.36282 3.47227,3.16023 3.139998,3.73724 -2.152085,3.73724 -2.195605,0 -3.99201,0.41456 -3.99201,0.92123 0,0.50668 0.932749,0.9269 2.072775,0.93382 5.832164,0.0354 6.441105,0.94752 2.525968,3.78363 -4.457902,3.229292 -4.58471,3.705222 -0.689584,2.588112 5.181984,-1.48617 5.846254,-1.06398 3.00009,1.90677 -3.103051,3.23889 -2.644181,3.44385 2.06247,0.92124 4.054853,-2.17327 9.184343,-2.36434 13.628083,-0.50763 3.19473,1.33485 3.19473,1.33485 3.19817,-2.07277 0.004,-4.044532 2.99685,-9.395632 5.25478,-9.395632 1.35265,0 1.29436,0.21434 -0.37657,1.3847 -1.08732,0.76159 -2.4416,2.79263 -3.00951,4.51341 -2.96443,8.982312 7.38775,15.342892 13.55851,8.330612 z m -9.719,0.32676 c -2.62281,-2.62281 -0.51108,-6.26439 3.63269,-6.26439 3.64572,0 5.94015,3.39852 3.85212,5.70577 -1.71558,1.8957 -5.83992,2.20351 -7.48481,0.55862 z m -7.5281,-14.984752 c -1.87995,-2.26521 -0.80372,-5.55875 1.81645,-5.55875 1.81335,0 2.3638,0.52553 2.5886,2.47143 0.35531,3.07553 -2.6606,5.18926 -4.40505,3.08732 z m 17.924,-1.45741 c -0.65619,-2.06746 0.90664,-4.56195 2.85812,-4.56195 1.9819,0 3.48546,3.54524 2.17382,5.12566 -1.59823,1.92575 -4.33928,1.61868 -5.03194,-0.56371 z m -29.77474,-6.83345 c -6.741472,-7.67811 -0.227434,-13.31076 6.85019,-5.92331 2.59723,2.71092 2.59723,2.71092 -0.66897,5.97712 -3.2662,3.2662 -3.2662,3.2662 -6.18122,-0.0538 z m 39.67722,-0.23734 c -3.00882,-3.3289 -3.00882,-3.3289 -1.06055,-5.40274 7.20217,-7.66637 13.58617,-2.16566 7.07143,6.09302 -2.5922,3.2861 -2.39654,3.30857 -6.01088,-0.69028 z m -1.21126,33.862112 c -4.07806,6.68607 -2.469,4.86123 0.85104,1.8495 3.52687,-2.59605 6.54656,-8.41628 5.30189,-11.65984 -1.17806,-3.06995 -9.51358,1.14625 -12.08071,6.11055 -1.03514,2.26458 -1.71634,4.95494 -1.35446,5.17284 0.58587,0.35277 1.56235,-2.82662 3.05264,-4.46551 -2.12885,4.29079 -2.87744,5.65385 -1.9738,5.65927 0.99553,0.006 1.76044,-3.0425 3.86246,-4.70896 -2.91002,3.43577 -3.20679,5.57252 -2.81686,5.85231 0.36952,0.26514 1.30796,-1.65548 4.04316,-4.46306 -4.62474,6.50776 -3.25242,7.33145 1.11464,0.65292 z"
       sodipodi:nodetypes="sssssssssssssssssssssssssssssssssssssssssssssssscscscscscsssscsssssssscsssssssssssssssscsssssssssssssssscsssssssssssssssssssssssssccscscscsccc" />
  </g>
</svg>
