<?xml version="1.0" encoding="UTF-8" standalone="no"?>
<!-- Created with Inkscape (http://www.inkscape.org/) -->

<svg
   version="1.1"
   id="svg55"
   width="51.231293"
   height="47.896606"
   viewBox="0 0 51.231293 47.896606"
   sodipodi:docname="icon.svg"
   inkscape:version="1.1.2 (0a00cf5339, 2022-02-04)"
   xmlns:inkscape="http://www.inkscape.org/namespaces/inkscape"
   xmlns:sodipodi="http://sodipodi.sourceforge.net/DTD/sodipodi-0.dtd"
   xmlns="http://www.w3.org/2000/svg"
   xmlns:svg="http://www.w3.org/2000/svg">
  <defs
     id="defs59">
    <inkscape:path-effect
       effect="mirror_symmetry"
       start_point="32.148438,8.2440178"
       end_point="32.148438,56.140626"
       center_point="32.148438,32.192322"
       id="path-effect31496"
       is_visible="true"
       lpeversion="1.1"
       mode="free"
       discard_orig_path="false"
       fuse_paths="false"
       oposite_fuse="false"
       split_items="false"
       split_open="false" />
    <inkscape:path-effect
       effect="mirror_symmetry"
       start_point="32.148022,9.0537226"
       end_point="32.148022,55.780049"
       center_point="32.148022,32.416886"
       id="path-effect12641"
       is_visible="true"
       lpeversion="1.1"
       mode="free"
       discard_orig_path="false"
       fuse_paths="false"
       oposite_fuse="false"
       split_items="false"
       split_open="false" />
  </defs>
  <sodipodi:namedview
     id="namedview57"
     pagecolor="#505050"
     bordercolor="#ffffff"
     borderopacity="1"
     inkscape:pageshadow="0"
     inkscape:pageopacity="0"
     inkscape:pagecheckerboard="1"
     showgrid="false"
     inkscape:zoom="7.7547351"
     inkscape:cx="-2.3856392"
     inkscape:cy="22.760287"
     inkscape:window-width="1920"
     inkscape:window-height="1006"
     inkscape:window-x="1920"
     inkscape:window-y="0"
     inkscape:window-maximized="1"
     inkscape:current-layer="g61" />
  <g
     inkscape:groupmode="layer"
     inkscape:label="Image"
     id="g61"
     transform="translate(-6.5327909,-8.2440178)">
    <path
       id="path25471"
       inkscape:path-effect="#path-effect31496"
       inkscape:original-d="m 27.341797,8.2460938 c -0.862246,-0.035282 -2.076252,0.3815075 -4.158203,1.0703124 -4.871772,1.6990488 -4.434607,1.2511038 -4.25,4.7578128 0.128278,2.436698 0.691739,1.695024 -1.019532,3.017578 -1.532394,1.184309 -0.424876,1.038993 -2.93164,-0.08203 -2.467717,-1.103563 -2.657301,-2.268833 -6.2089845,2.90039 -2.9111021,4.236903 -2.8915834,2.684583 -0.4863281,6.355469 1.4814424,2.260968 1.2949219,1.000328 1.2949218,10.808594 0,8.431436 -0.1041692,9.931022 2.0253908,12.298828 1.5125,1.681712 3.264471,3.673746 7.701172,4.962891 5.201278,1.511302 7.729512,1.782179 12.839844,1.804687 v -2.382813 c -4.5644,-0.0069 -6.876612,-0.533953 -10.369141,-1.439453 -6.067662,-1.573149 -10.269537,-5.155172 -9.671875,-10.146484 0,0 3.941144,0.114397 5.466797,0.117187 l 0.193359,2.087891 c 0.238851,2.597799 0.411778,2.425688 5.816406,2.701172 5.453415,0.277971 5.082627,0.216471 5.414063,-2.240234 0.240453,-1.782319 -0.439108,-1.554599 3.150391,-1.632813 v -2.21289 c -5.604452,0.03332 -5.386299,0.1627 -5.416016,3.763671 0,0 -0.07993,0.0078 -3.302734,0.0078 -2.951927,0 -3.06836,-0.05664 -3.06836,-0.05664 -0.306102,-4.588406 -0.207539,-4.825301 -4.433594,-4.929687 l -3.77539,-0.0332 L 12,33.904297 c -0.154468,-5.927255 0.270104,-6.377178 -1.423828,-8.53125 -1.9266279,-2.449979 -1.7009662,-1.109829 0.46289,-4.253906 1.942998,-2.823169 1.086148,-2.770015 3.902344,-1.542969 2.467381,1.075064 1.789588,1.393344 4.576172,-0.646484 2.614832,-1.914104 2.158589,-1.37995 1.919922,-4.277344 -0.186958,-2.269658 -0.694295,-2.065493 2.962891,-3.453125 3.137937,-1.190616 2.710818,-1.157727 3.882812,1.447265 1.117418,2.53922 0.412248,2.265625 3.865235,2.265625 l -0.002,-2.265625 c -1.820145,0 -1.414964,0.04662 -2.134765,-1.632812 -1.03491,-1.9291065 -1.56132,-2.7222162 -2.669922,-2.7675782 z M 21.599058,27.652896 c -2.988458,0 -4.935605,2.32329 -5.033655,4.259213 -0.126767,2.503001 0.820745,5.401362 4.885797,5.373047 2.782124,-0.01938 4.701649,-1.961786 4.751051,-4.58789 0.06332,-3.36605 -2.471949,-5.04437 -4.603193,-5.04437 z m -0.01794,2.634531 c 1.675701,-0.06006 2.394042,1.257102 2.394042,2.39503 0,1.63321 -1.155811,2.675197 -2.445495,2.641815 -1.212062,-0.03137 -2.259528,-1.088283 -2.211653,-2.475447 0.04895,-1.418231 1.057363,-2.518183 2.263106,-2.561398 z m 10.56732,0.254246 c -1.814773,0 -2.324577,1.969338 -2.356726,3.573048 -0.04327,2.158203 0.516384,3.992991 2.356726,4.007816"
       d="m 27.341797,8.2460938 c -0.862246,-0.035282 -2.076252,0.3815075 -4.158203,1.0703124 -4.871772,1.6990488 -4.434607,1.2511038 -4.25,4.7578128 0.128278,2.436698 0.691739,1.695024 -1.019532,3.017578 -1.532394,1.184309 -0.424876,1.038993 -2.93164,-0.08203 -2.467717,-1.103563 -2.657301,-2.268833 -6.2089845,2.90039 -2.9111021,4.236903 -2.8915834,2.684583 -0.4863281,6.355469 1.4814424,2.260968 1.2949219,1.000328 1.2949218,10.808594 0,8.431436 -0.1041692,9.931022 2.0253908,12.298828 1.5125,1.681712 3.264471,3.673746 7.701172,4.962891 5.201278,1.511302 7.729512,1.782179 12.839844,1.804687 v -2.382813 c -4.5644,-0.0069 -6.876612,-0.533953 -10.369141,-1.439453 -6.067662,-1.573149 -10.269537,-5.155172 -9.671875,-10.146484 0,0 3.941144,0.114397 5.466797,0.117187 l 0.193359,2.087891 c 0.238851,2.597799 0.411778,2.425688 5.816406,2.701172 5.453415,0.277971 5.082627,0.216471 5.414063,-2.240234 0.240453,-1.782319 -0.439108,-1.554599 3.150391,-1.632813 v -2.21289 c -5.604452,0.03332 -5.386299,0.1627 -5.416016,3.763671 0,0 -0.07993,0.0078 -3.302734,0.0078 -2.951927,0 -3.06836,-0.05664 -3.06836,-0.05664 -0.306102,-4.588406 -0.207539,-4.825301 -4.433594,-4.929687 l -3.77539,-0.0332 L 12,33.904297 c -0.154468,-5.927255 0.270104,-6.377178 -1.423828,-8.53125 -1.9266279,-2.449979 -1.7009662,-1.109829 0.46289,-4.253906 1.942998,-2.823169 1.086148,-2.770015 3.902344,-1.542969 2.467381,1.075064 1.789588,1.393344 4.576172,-0.646484 2.614832,-1.914104 2.158589,-1.37995 1.919922,-4.277344 -0.186958,-2.269658 -0.694295,-2.065493 2.962891,-3.453125 3.137937,-1.190616 2.710818,-1.157727 3.882812,1.447265 1.117418,2.53922 0.412248,2.265625 3.865235,2.265625 l -0.002,-2.265625 c -1.820145,0 -1.414964,0.04662 -2.134765,-1.632812 -1.03491,-1.9291065 -1.56132,-2.7222162 -2.669922,-2.7675782 z M 21.599058,27.652896 c -2.988458,0 -4.935605,2.32329 -5.033655,4.259213 -0.126767,2.503001 0.820745,5.401362 4.885797,5.373047 2.782124,-0.01938 4.701649,-1.961786 4.751051,-4.58789 0.06332,-3.36605 -2.471949,-5.04437 -4.603193,-5.04437 z m -0.01794,2.634531 c 1.675701,-0.06006 2.394042,1.257102 2.394042,2.39503 0,1.63321 -1.155811,2.675197 -2.445495,2.641815 -1.212062,-0.03137 -2.259528,-1.088283 -2.211653,-2.475447 0.04895,-1.418231 1.057363,-2.518183 2.263106,-2.561398 z m 10.56732,0.254246 c -1.814773,0 -2.324577,1.969338 -2.356726,3.573048 -0.04327,2.158203 0.516384,3.992991 2.356726,4.007816 M 36.955079,8.2460938 c 0.862246,-0.035282 2.076252,0.3815075 4.158203,1.0703124 4.871772,1.6990488 4.434607,1.2511038 4.25,4.7578128 -0.128278,2.436698 -0.691739,1.695024 1.019532,3.017578 1.532394,1.184309 0.424876,1.038993 2.93164,-0.08203 2.467717,-1.103563 2.657301,-2.268833 6.208984,2.90039 2.911103,4.236903 2.891584,2.684583 0.486329,6.355469 -1.481443,2.260968 -1.294922,1.000328 -1.294922,10.808594 0,8.431436 0.104169,9.931022 -2.025391,12.298828 -1.5125,1.681712 -3.264471,3.673746 -7.701172,4.962891 -5.201278,1.511302 -7.729512,1.782179 -12.839844,1.804687 v -2.382813 c 4.5644,-0.0069 6.876612,-0.533953 10.369141,-1.439453 6.067662,-1.573149 10.269537,-5.155172 9.671875,-10.146484 0,0 -3.941144,0.114397 -5.466797,0.117187 l -0.193359,2.087891 c -0.238851,2.597799 -0.411778,2.425688 -5.816406,2.701172 -5.453415,0.277971 -5.082627,0.216471 -5.414063,-2.240234 -0.240453,-1.782319 0.439108,-1.554599 -3.150391,-1.632813 v -2.21289 c 5.604452,0.03332 5.386299,0.1627 5.416016,3.763671 0,0 0.07993,0.0078 3.302734,0.0078 2.951927,0 3.06836,-0.05664 3.06836,-0.05664 0.306102,-4.588406 0.207539,-4.825301 4.433594,-4.929687 l 3.77539,-0.0332 0.152344,-5.839836 c 0.154468,-5.927255 -0.270104,-6.377178 1.423828,-8.53125 1.926628,-2.449979 1.700966,-1.109829 -0.46289,-4.253906 -1.942998,-2.823169 -1.086148,-2.770015 -3.902344,-1.542969 -2.467381,1.075064 -1.789588,1.393344 -4.576172,-0.646484 -2.614832,-1.914104 -2.158589,-1.37995 -1.919922,-4.277344 0.186958,-2.269658 0.694295,-2.065493 -2.962891,-3.453125 -3.137937,-1.190616 -2.710818,-1.157727 -3.882812,1.447265 -1.117418,2.53922 -0.412248,2.265625 -3.865235,2.265625 l 0.002,-2.265625 c 1.820145,0 1.414964,0.04662 2.134765,-1.632812 1.03491,-1.9291065 1.56132,-2.7222162 2.669922,-2.7675782 z m 5.742739,19.4068022 c 2.988458,0 4.935605,2.32329 5.033655,4.259213 0.126767,2.503001 -0.820745,5.401362 -4.885797,5.373047 -2.782124,-0.01938 -4.701649,-1.961786 -4.751051,-4.58789 -0.06332,-3.36605 2.471949,-5.04437 4.603193,-5.04437 z m 0.01794,2.634531 c -1.675701,-0.06006 -2.394042,1.257102 -2.394042,2.39503 0,1.63321 1.155811,2.675197 2.445495,2.641815 1.212062,-0.03137 2.259528,-1.088283 2.211653,-2.475447 -0.04895,-1.418231 -1.057363,-2.518183 -2.263106,-2.561398 z m -10.56732,0.254246 c 1.814773,0 2.324577,1.969338 2.356726,3.573048 0.04327,2.158203 -0.516384,3.992991 -2.356726,4.007816"
       sodipodi:nodetypes="ccssssssssccscccsscccsccccssssssccccccsssssssssscsc"
       style="fill:#020000;fill-opacity:1" />
  </g>
</svg>
